<svg xmlns="http://www.w3.org/2000/svg" width="16" height="16" viewBox="0 0 16 16" fill="none">
  <g clip-path="url(#clip0_42_1568)">
    <path fill-rule="evenodd" clip-rule="evenodd" d="M8.88853 11.6348C8.88853 12.1256 8.49064 12.5235 7.99983 12.5235C7.50902 12.5235 7.11113 12.1256 7.11113 11.6348C7.11113 11.144 7.50902 10.7461 7.99983 10.7461C8.49064 10.7461 8.88853 11.144 8.88853 11.6348Z" fill="white"/>
    <path fill-rule="evenodd" clip-rule="evenodd" d="M7.00214 3.8941C7.4785 3.69679 8.00268 3.64516 8.50838 3.74575C9.01408 3.84634 9.4786 4.09463 9.84319 4.45922C10.2078 4.82381 10.4561 5.28833 10.5567 5.79403C10.6572 6.29973 10.6056 6.8239 10.4083 7.30026C10.211 7.77662 9.87685 8.18378 9.44814 8.47023C9.16917 8.65663 8.85831 8.78648 8.53312 8.85445V8.96872C8.53312 9.26327 8.29434 9.50205 7.99978 9.50205C7.70523 9.50205 7.46645 9.26327 7.46645 8.96872V8.37625C7.46645 8.2348 7.52264 8.09915 7.62266 7.99913C7.72268 7.89911 7.85834 7.84292 7.99978 7.84292C8.30443 7.84292 8.60223 7.75258 8.85553 7.58333C9.10883 7.41408 9.30625 7.17352 9.42283 6.89207C9.53941 6.61062 9.56992 6.30091 9.51048 6.00213C9.45105 5.70334 9.30435 5.42888 9.08894 5.21347C8.87353 4.99805 8.59907 4.85135 8.30028 4.79192C8.00149 4.73249 7.69179 4.76299 7.41034 4.87957C7.12889 4.99616 6.88833 5.19358 6.71908 5.44688C6.54983 5.70018 6.45949 5.99798 6.45949 6.30262C6.45949 6.59717 6.22071 6.83596 5.92616 6.83596C5.6316 6.83596 5.39282 6.59717 5.39282 6.30262C5.39282 5.78701 5.54572 5.28298 5.83217 4.85427C6.11863 4.42556 6.52578 4.09142 7.00214 3.8941Z" fill="white"/>
    <path fill-rule="evenodd" clip-rule="evenodd" d="M7.9998 1.86647C4.61246 1.86647 1.86647 4.61246 1.86647 7.9998C1.86647 11.3872 4.61246 14.1331 7.9998 14.1331C11.3872 14.1331 14.1331 11.3872 14.1331 7.9998C14.1331 4.61246 11.3872 1.86647 7.9998 1.86647ZM0.799805 7.9998C0.799805 4.02335 4.02335 0.799805 7.9998 0.799805C11.9763 0.799805 15.1998 4.02335 15.1998 7.9998C15.1998 11.9763 11.9763 15.1998 7.9998 15.1998C4.02335 15.1998 0.799805 11.9763 0.799805 7.9998Z" fill="white"/>
  </g>
  <defs>
    <clipPath id="clip0_42_1568">
      <rect width="16" height="16" fill="white"/>
    </clipPath>
  </defs>
</svg>